<svg width="23" height="23" viewBox="0 0 23 23" fill="none" xmlns="http://www.w3.org/2000/svg">
<path d="M0 20V6C5.99779e-05 5.20443 0.31635 4.44146 0.878906 3.87891C1.4415 3.31637 2.2044 3 3 3H10L10.1021 3.00537C10.6063 3.05648 10.9999 3.48227 11 4C11 4.51783 10.6064 4.944 10.1021 4.99512L10 5H3C2.73484 5 2.48049 5.1055 2.29297 5.29297C2.10549 5.48045 2.00006 5.73487 2 6V20C2 20.2652 2.10543 20.52 2.29297 20.7075C2.48049 20.895 2.73485 21 3 21H17C17.2652 21 17.5195 20.895 17.707 20.7075C17.8946 20.52 18 20.2652 18 20V13C18.0001 12.4478 18.4478 12 19 12C19.5522 12 19.9999 12.4478 20 13V20C20 20.7957 19.6837 21.559 19.1211 22.1216C18.5585 22.6841 17.7956 23 17 23H3C2.20441 23 1.4415 22.6841 0.878906 22.1216C0.316297 21.559 0 20.7957 0 20ZM20.1211 4C20.121 3.70275 20.0031 3.41774 19.793 3.20752C19.5827 2.99723 19.2974 2.87891 19 2.87891C18.7398 2.87891 18.4891 2.96939 18.2896 3.13281L18.207 3.20752L8.90283 12.5112L8.37402 14.626L10.4883 14.0972L19.793 4.79297L19.8672 4.71094C20.0307 4.51138 20.1211 4.26028 20.1211 4ZM22.1211 4C22.1211 4.77607 21.8324 5.52264 21.314 6.09521L21.207 6.20752L11.707 15.7075C11.5789 15.8356 11.4184 15.9263 11.2427 15.9702L7.24268 16.9702C6.90196 17.0554 6.54134 16.9558 6.29297 16.7075C6.04462 16.4592 5.94465 16.0985 6.02979 15.7578L7.02979 11.7578L7.04834 11.6924C7.09695 11.5421 7.18084 11.4051 7.29297 11.293L16.793 1.79297L16.9053 1.68652C17.4778 1.1681 18.2239 0.878906 19 0.878906C19.8278 0.878906 20.6217 1.20768 21.207 1.79297C21.7923 2.37828 22.121 3.17226 22.1211 4Z" fill="#383838"/>
</svg>
