<svg width="20" height="20" viewBox="0 0 20 20" fill="none" xmlns="http://www.w3.org/2000/svg">
<path d="M17.5 10C17.5 5.8579 14.1421 2.50004 10 2.50004C5.85786 2.50004 2.49999 5.8579 2.49999 10C2.49999 14.1422 5.85786 17.5 10 17.5C14.1421 17.5 17.5 14.1422 17.5 10ZM9.16666 13.3334V10C9.16666 9.5398 9.53976 9.16671 10 9.16671C10.4602 9.16671 10.8333 9.5398 10.8333 10V13.3334C10.8333 13.7936 10.4602 14.1667 10 14.1667C9.53976 14.1667 9.16666 13.7936 9.16666 13.3334ZM10.0081 5.83337L10.0936 5.83785C10.5138 5.88056 10.8415 6.23526 10.8415 6.66671C10.8415 7.09816 10.5138 7.45286 10.0936 7.49556L10.0081 7.50004H10C9.53976 7.50004 9.16666 7.12694 9.16666 6.66671C9.16666 6.20647 9.53976 5.83337 10 5.83337H10.0081ZM19.1667 10C19.1667 15.0627 15.0626 19.1667 10 19.1667C4.93738 19.1667 0.833328 15.0627 0.833328 10C0.833328 4.93743 4.93738 0.833374 10 0.833374C15.0626 0.833374 19.1667 4.93743 19.1667 10Z" fill="#383838"/>
</svg>
