<svg width="222" height="24" viewBox="0 0 222 24" fill="none" xmlns="http://www.w3.org/2000/svg">
<path d="M3.09801 1.04545V18.5H0.464489V1.04545H3.09801ZM6.07244 3.3125V1.04545H19.581V3.3125H14.1349V18.5H11.5099V3.3125H6.07244ZM25.1996 1.04545V18.5H22.5661V1.04545H25.1996ZM38.5547 5.63068C38.4638 4.82386 38.0888 4.19886 37.4297 3.75568C36.7706 3.30682 35.9411 3.08239 34.9411 3.08239C34.2251 3.08239 33.6058 3.19602 33.0831 3.42329C32.5604 3.64489 32.1541 3.9517 31.8643 4.34375C31.5803 4.73011 31.4382 5.17045 31.4382 5.66477C31.4382 6.07955 31.5348 6.4375 31.728 6.73864C31.9268 7.03977 32.1854 7.29261 32.5036 7.49716C32.8274 7.69602 33.174 7.86364 33.5433 8C33.9126 8.13068 34.2678 8.23864 34.6087 8.32386L36.3132 8.76705C36.87 8.90341 37.4411 9.08807 38.0263 9.32102C38.6115 9.55398 39.1541 9.8608 39.6541 10.2415C40.1541 10.6222 40.5575 11.0938 40.8643 11.6562C41.1768 12.2188 41.3331 12.892 41.3331 13.6761C41.3331 14.6648 41.0774 15.5426 40.5661 16.3097C40.0604 17.0767 39.3246 17.6818 38.3587 18.125C37.3984 18.5682 36.2365 18.7898 34.8729 18.7898C33.5661 18.7898 32.4354 18.5824 31.4808 18.1676C30.5263 17.7528 29.7791 17.1648 29.2393 16.4034C28.6996 15.6364 28.4013 14.7273 28.3445 13.6761H30.9865C31.0376 14.3068 31.2422 14.8324 31.6001 15.2528C31.9638 15.6676 32.4268 15.9773 32.9893 16.1818C33.5575 16.3807 34.1797 16.4801 34.8558 16.4801C35.6001 16.4801 36.2621 16.3636 36.8416 16.1307C37.4268 15.892 37.8871 15.5625 38.2223 15.142C38.5575 14.7159 38.7251 14.2187 38.7251 13.6506C38.7251 13.1335 38.5774 12.7102 38.282 12.3807C37.9922 12.0511 37.5973 11.7784 37.0973 11.5625C36.603 11.3466 36.0433 11.1562 35.4183 10.9915L33.3558 10.429C31.9581 10.0483 30.8501 9.48864 30.032 8.75C29.2195 8.01136 28.8132 7.03409 28.8132 5.81818C28.8132 4.8125 29.0859 3.93466 29.6314 3.18466C30.1768 2.43466 30.9155 1.85227 31.8473 1.4375C32.7791 1.01705 33.8303 0.806818 35.0007 0.806818C36.1825 0.806818 37.2251 1.0142 38.1286 1.42898C39.0376 1.84375 39.7536 2.41477 40.2763 3.14204C40.799 3.86364 41.0717 4.69318 41.0945 5.63068H38.5547Z" fill="#007AFF"/>
<path d="M50.0348 18.5V1.04545H56.2564C57.6143 1.04545 58.7393 1.29261 59.6314 1.78693C60.5234 2.28125 61.1911 2.95739 61.6342 3.81534C62.0774 4.66761 62.299 5.62784 62.299 6.69602C62.299 7.76989 62.0746 8.7358 61.6257 9.59375C61.1825 10.446 60.5121 11.1222 59.6143 11.6222C58.7223 12.1165 57.6001 12.3636 56.2479 12.3636H51.9695V10.1307H56.0092C56.8672 10.1307 57.5632 9.98295 58.0973 9.6875C58.6314 9.38636 59.0234 8.97727 59.2734 8.46023C59.5234 7.94318 59.6484 7.35511 59.6484 6.69602C59.6484 6.03693 59.5234 5.4517 59.2734 4.94034C59.0234 4.42898 58.6286 4.02841 58.0888 3.73864C57.5547 3.44886 56.8501 3.30398 55.9751 3.30398H52.6683V18.5H50.0348ZM65.1818 18.5V5.40909H67.6449V7.48864H67.7812C68.0199 6.78409 68.4403 6.23011 69.0426 5.8267C69.6506 5.41761 70.3381 5.21307 71.1051 5.21307C71.2642 5.21307 71.4517 5.21875 71.6676 5.23011C71.8892 5.24148 72.0625 5.25568 72.1875 5.27273V7.71023C72.0852 7.68182 71.9034 7.65057 71.642 7.61648C71.3807 7.5767 71.1193 7.55682 70.858 7.55682C70.2557 7.55682 69.7188 7.68466 69.2472 7.94034C68.7813 8.19034 68.4119 8.53977 68.1392 8.98864C67.8665 9.43182 67.7301 9.9375 67.7301 10.5057V18.5H65.1818ZM79.4382 18.7642C78.2109 18.7642 77.1399 18.483 76.2251 17.9205C75.3104 17.358 74.6001 16.571 74.0945 15.5597C73.5888 14.5483 73.3359 13.3665 73.3359 12.0142C73.3359 10.6562 73.5888 9.46875 74.0945 8.4517C74.6001 7.43466 75.3104 6.64489 76.2251 6.08239C77.1399 5.51989 78.2109 5.23864 79.4382 5.23864C80.6655 5.23864 81.7365 5.51989 82.6513 6.08239C83.5661 6.64489 84.2763 7.43466 84.782 8.4517C85.2876 9.46875 85.5405 10.6562 85.5405 12.0142C85.5405 13.3665 85.2876 14.5483 84.782 15.5597C84.2763 16.571 83.5661 17.358 82.6513 17.9205C81.7365 18.483 80.6655 18.7642 79.4382 18.7642ZM79.4467 16.625C80.2422 16.625 80.9013 16.4148 81.424 15.9943C81.9467 15.5739 82.3331 15.0142 82.5831 14.3153C82.8388 13.6165 82.9666 12.8466 82.9666 12.0057C82.9666 11.1705 82.8388 10.4034 82.5831 9.70455C82.3331 9 81.9467 8.43466 81.424 8.00852C80.9013 7.58239 80.2422 7.36932 79.4467 7.36932C78.6456 7.36932 77.9808 7.58239 77.4524 8.00852C76.9297 8.43466 76.5405 9 76.2848 9.70455C76.0348 10.4034 75.9098 11.1705 75.9098 12.0057C75.9098 12.8466 76.0348 13.6165 76.2848 14.3153C76.5405 15.0142 76.9297 15.5739 77.4524 15.9943C77.9808 16.4148 78.6456 16.625 79.4467 16.625ZM93.8991 18.7642C92.6321 18.7642 91.5412 18.4773 90.6264 17.9034C89.7173 17.3239 89.0185 16.5256 88.5298 15.5085C88.0412 14.4915 87.7969 13.3267 87.7969 12.0142C87.7969 10.6847 88.0469 9.51136 88.5469 8.49432C89.0469 7.47159 89.7514 6.6733 90.6605 6.09943C91.5696 5.52557 92.6406 5.23864 93.8736 5.23864C94.8679 5.23864 95.7543 5.4233 96.5327 5.79261C97.3111 6.15625 97.9389 6.66761 98.4162 7.3267C98.8991 7.9858 99.1861 8.75568 99.277 9.63636H96.7969C96.6605 9.02273 96.348 8.49432 95.8594 8.05114C95.3764 7.60795 94.7287 7.38636 93.9162 7.38636C93.206 7.38636 92.5838 7.57386 92.0497 7.94886C91.5213 8.31818 91.1094 8.84659 90.8139 9.53409C90.5185 10.2159 90.3707 11.0227 90.3707 11.9545C90.3707 12.9091 90.5156 13.733 90.8054 14.4261C91.0952 15.1193 91.5043 15.6562 92.0327 16.0369C92.5668 16.4176 93.1946 16.608 93.9162 16.608C94.3991 16.608 94.8366 16.5199 95.2287 16.3438C95.6264 16.1619 95.9588 15.9034 96.2259 15.5682C96.4986 15.233 96.6889 14.8295 96.7969 14.358H99.277C99.1861 15.2045 98.9105 15.9602 98.4503 16.625C97.9901 17.2898 97.3736 17.8125 96.6009 18.1932C95.8338 18.5739 94.9332 18.7642 93.8991 18.7642ZM107.644 18.7642C106.354 18.7642 105.244 18.4886 104.312 17.9375C103.386 17.3807 102.67 16.5994 102.164 15.5938C101.664 14.5824 101.414 13.3977 101.414 12.0398C101.414 10.6989 101.664 9.51705 102.164 8.49432C102.67 7.47159 103.374 6.6733 104.278 6.09943C105.187 5.52557 106.249 5.23864 107.465 5.23864C108.204 5.23864 108.92 5.3608 109.613 5.60511C110.306 5.84943 110.928 6.23295 111.479 6.75568C112.031 7.27841 112.465 7.95739 112.783 8.79261C113.102 9.62216 113.261 10.6307 113.261 11.8182V12.7216H102.854V10.8125H110.763C110.763 10.142 110.627 9.5483 110.354 9.03125C110.082 8.50852 109.698 8.09659 109.204 7.79545C108.715 7.49432 108.141 7.34375 107.482 7.34375C106.766 7.34375 106.141 7.51989 105.607 7.87216C105.079 8.21875 104.67 8.6733 104.38 9.2358C104.096 9.79261 103.954 10.3977 103.954 11.0511V12.5426C103.954 13.4176 104.107 14.1619 104.414 14.7756C104.727 15.3892 105.161 15.858 105.718 16.1818C106.275 16.5 106.925 16.6591 107.67 16.6591C108.153 16.6591 108.593 16.5909 108.991 16.4545C109.388 16.3125 109.732 16.1023 110.022 15.8239C110.312 15.5455 110.533 15.2017 110.687 14.7926L113.099 15.2273C112.906 15.9375 112.559 16.5597 112.059 17.0938C111.565 17.6222 110.942 18.0341 110.192 18.3295C109.448 18.6193 108.599 18.7642 107.644 18.7642ZM125.898 8.60511L123.588 9.0142C123.491 8.71875 123.338 8.4375 123.128 8.17045C122.923 7.90341 122.645 7.68466 122.293 7.5142C121.94 7.34375 121.5 7.25852 120.972 7.25852C120.25 7.25852 119.648 7.42045 119.165 7.74432C118.682 8.0625 118.44 8.47443 118.44 8.98011C118.44 9.41761 118.602 9.76989 118.926 10.0369C119.25 10.304 119.773 10.5227 120.494 10.6932L122.574 11.1705C123.778 11.4489 124.676 11.8778 125.267 12.4574C125.858 13.0369 126.153 13.7898 126.153 14.7159C126.153 15.5 125.926 16.1989 125.472 16.8125C125.023 17.4205 124.395 17.8977 123.588 18.2443C122.787 18.5909 121.858 18.7642 120.801 18.7642C119.335 18.7642 118.139 18.4517 117.213 17.8267C116.287 17.196 115.719 16.3011 115.509 15.142L117.972 14.767C118.125 15.4091 118.44 15.8949 118.918 16.2244C119.395 16.5483 120.017 16.7102 120.784 16.7102C121.619 16.7102 122.287 16.5369 122.787 16.1903C123.287 15.8381 123.537 15.4091 123.537 14.9034C123.537 14.4943 123.384 14.1506 123.077 13.8722C122.776 13.5937 122.312 13.3835 121.688 13.2415L119.472 12.7557C118.25 12.4773 117.347 12.0341 116.761 11.4261C116.182 10.8182 115.892 10.0483 115.892 9.11648C115.892 8.34375 116.108 7.66761 116.54 7.08807C116.972 6.50852 117.568 6.05682 118.33 5.73295C119.091 5.40341 119.963 5.23864 120.946 5.23864C122.361 5.23864 123.474 5.54545 124.287 6.15909C125.099 6.76705 125.636 7.58239 125.898 8.60511ZM138.765 8.60511L136.455 9.0142C136.359 8.71875 136.205 8.4375 135.995 8.17045C135.79 7.90341 135.512 7.68466 135.16 7.5142C134.808 7.34375 134.367 7.25852 133.839 7.25852C133.117 7.25852 132.515 7.42045 132.032 7.74432C131.549 8.0625 131.308 8.47443 131.308 8.98011C131.308 9.41761 131.469 9.76989 131.793 10.0369C132.117 10.304 132.64 10.5227 133.362 10.6932L135.441 11.1705C136.646 11.4489 137.543 11.8778 138.134 12.4574C138.725 13.0369 139.021 13.7898 139.021 14.7159C139.021 15.5 138.793 16.1989 138.339 16.8125C137.89 17.4205 137.262 17.8977 136.455 18.2443C135.654 18.5909 134.725 18.7642 133.668 18.7642C132.202 18.7642 131.006 18.4517 130.08 17.8267C129.154 17.196 128.586 16.3011 128.376 15.142L130.839 14.767C130.992 15.4091 131.308 15.8949 131.785 16.2244C132.262 16.5483 132.884 16.7102 133.651 16.7102C134.487 16.7102 135.154 16.5369 135.654 16.1903C136.154 15.8381 136.404 15.4091 136.404 14.9034C136.404 14.4943 136.251 14.1506 135.944 13.8722C135.643 13.5937 135.18 13.3835 134.555 13.2415L132.339 12.7557C131.117 12.4773 130.214 12.0341 129.629 11.4261C129.049 10.8182 128.759 10.0483 128.759 9.11648C128.759 8.34375 128.975 7.66761 129.407 7.08807C129.839 6.50852 130.435 6.05682 131.197 5.73295C131.958 5.40341 132.83 5.23864 133.813 5.23864C135.228 5.23864 136.342 5.54545 137.154 6.15909C137.967 6.76705 138.504 7.58239 138.765 8.60511ZM148.379 1.04545H151.575L157.131 14.6136H157.336L162.893 1.04545H166.089V18.5H163.583V5.86932H163.421L158.273 18.4744H156.194L151.046 5.86079H150.884V18.5H148.379V1.04545ZM169.713 18.5V5.40909H172.261V18.5H169.713ZM171 3.3892C170.557 3.3892 170.176 3.24148 169.858 2.94602C169.545 2.64489 169.389 2.28693 169.389 1.87216C169.389 1.4517 169.545 1.09375 169.858 0.798295C170.176 0.497159 170.557 0.346591 171 0.346591C171.443 0.346591 171.821 0.497159 172.134 0.798295C172.452 1.09375 172.611 1.4517 172.611 1.87216C172.611 2.28693 172.452 2.64489 172.134 2.94602C171.821 3.24148 171.443 3.3892 171 3.3892ZM178.238 10.7273V18.5H175.69V5.40909H178.136V7.53977H178.298C178.599 6.84659 179.07 6.28977 179.712 5.86932C180.36 5.44886 181.175 5.23864 182.158 5.23864C183.05 5.23864 183.832 5.42614 184.502 5.80114C185.173 6.17045 185.692 6.72159 186.062 7.45455C186.431 8.1875 186.616 9.09375 186.616 10.1733V18.5H184.067V10.4801C184.067 9.53125 183.82 8.78977 183.326 8.25568C182.832 7.71591 182.153 7.44602 181.289 7.44602C180.698 7.44602 180.173 7.57386 179.712 7.82955C179.258 8.08523 178.897 8.46023 178.63 8.95455C178.369 9.44318 178.238 10.0341 178.238 10.7273ZM190.033 18.5V5.40909H192.582V18.5H190.033ZM191.32 3.3892C190.877 3.3892 190.496 3.24148 190.178 2.94602C189.866 2.64489 189.71 2.28693 189.71 1.87216C189.71 1.4517 189.866 1.09375 190.178 0.798295C190.496 0.497159 190.877 0.346591 191.32 0.346591C191.763 0.346591 192.141 0.497159 192.454 0.798295C192.772 1.09375 192.931 1.4517 192.931 1.87216C192.931 2.28693 192.772 2.64489 192.454 2.94602C192.141 3.24148 191.763 3.3892 191.32 3.3892ZM198.558 10.7273V18.5H196.01V5.40909H198.456V7.53977H198.618C198.919 6.84659 199.391 6.28977 200.033 5.86932C200.68 5.44886 201.496 5.23864 202.479 5.23864C203.371 5.23864 204.152 5.42614 204.822 5.80114C205.493 6.17045 206.013 6.72159 206.382 7.45455C206.751 8.1875 206.936 9.09375 206.936 10.1733V18.5H204.388V10.4801C204.388 9.53125 204.141 8.78977 203.646 8.25568C203.152 7.71591 202.473 7.44602 201.609 7.44602C201.018 7.44602 200.493 7.57386 200.033 7.82955C199.578 8.08523 199.217 8.46023 198.95 8.95455C198.689 9.44318 198.558 10.0341 198.558 10.7273ZM215.842 23.6818C214.803 23.6818 213.908 23.5455 213.158 23.2727C212.413 23 211.805 22.6392 211.334 22.1903C210.862 21.7415 210.51 21.25 210.277 20.7159L212.467 19.8125C212.621 20.0625 212.825 20.3267 213.081 20.6051C213.342 20.8892 213.695 21.1307 214.138 21.3295C214.587 21.5284 215.163 21.6278 215.868 21.6278C216.834 21.6278 217.632 21.392 218.263 20.9205C218.893 20.4545 219.209 19.7102 219.209 18.6875V16.1136H219.047C218.893 16.392 218.672 16.7017 218.382 17.0426C218.098 17.3835 217.706 17.679 217.206 17.929C216.706 18.179 216.055 18.304 215.254 18.304C214.22 18.304 213.288 18.0625 212.459 17.5795C211.635 17.0909 210.982 16.3722 210.499 15.4233C210.021 14.4687 209.783 13.2955 209.783 11.9034C209.783 10.5114 210.018 9.31818 210.49 8.32386C210.967 7.32955 211.621 6.56818 212.45 6.03977C213.28 5.50568 214.22 5.23864 215.271 5.23864C216.084 5.23864 216.74 5.375 217.24 5.64773C217.74 5.91477 218.129 6.22727 218.408 6.58523C218.692 6.94318 218.911 7.25852 219.064 7.53125H219.251V5.40909H221.749V18.7898C221.749 19.9148 221.487 20.8381 220.964 21.5597C220.442 22.2813 219.734 22.8153 218.842 23.1619C217.956 23.5085 216.956 23.6818 215.842 23.6818ZM215.817 16.1903C216.55 16.1903 217.169 16.0199 217.675 15.679C218.186 15.3324 218.572 14.8381 218.834 14.196C219.101 13.5483 219.234 12.7727 219.234 11.8693C219.234 10.9886 219.104 10.2131 218.842 9.54261C218.581 8.87216 218.197 8.34943 217.692 7.97443C217.186 7.59375 216.561 7.40341 215.817 7.40341C215.05 7.40341 214.411 7.60227 213.899 8C213.388 8.39205 213.001 8.92614 212.74 9.60227C212.484 10.2784 212.357 11.0341 212.357 11.8693C212.357 12.7273 212.487 13.4801 212.749 14.1278C213.01 14.7756 213.396 15.2812 213.908 15.6449C214.425 16.0085 215.061 16.1903 215.817 16.1903Z" fill="#383838"/>
</svg>
