<svg width="17" height="13" viewBox="0 0 17 13" fill="none" xmlns="http://www.w3.org/2000/svg">
<path d="M16.15 10.7857C16.6194 10.7857 17 11.1695 17 11.6429C17 12.1162 16.6194 12.5 16.15 12.5H0.85C0.380558 12.5 0 12.1162 0 11.6429C0 11.1695 0.380558 10.7857 0.85 10.7857H16.15ZM16.15 5.64286C16.6194 5.64286 17 6.02661 17 6.5C17 6.97339 16.6194 7.35714 16.15 7.35714H0.85C0.380558 7.35714 0 6.97339 0 6.5C0 6.02661 0.380558 5.64286 0.85 5.64286H16.15ZM16.15 0.5C16.6194 0.5 17 0.883756 17 1.35714C17 1.83053 16.6194 2.21429 16.15 2.21429H0.85C0.380558 2.21429 0 1.83053 0 1.35714C0 0.883756 0.380558 0.5 0.85 0.5H16.15Z" fill="#383838"/>
</svg>
