<svg width="16" height="18" viewBox="0 0 16 18" fill="none" xmlns="http://www.w3.org/2000/svg">
<path d="M14 10.8973C13.7014 11.0501 13.3708 11.1856 13.0189 11.3031C11.7044 11.742 9.93257 12 8 12C6.06743 12 4.29565 11.742 2.98108 11.3031C2.6292 11.1856 2.29856 11.0501 2 10.8973V14.25C2 14.2514 2.00007 14.2553 2.00256 14.2635C2.00523 14.2724 2.01169 14.289 2.02673 14.3137C2.05834 14.3656 2.12264 14.4434 2.24316 14.5389C2.48871 14.7335 2.89108 14.9416 3.45642 15.1304C4.57935 15.5052 6.18264 15.75 8 15.75C9.81736 15.75 11.4207 15.5052 12.5436 15.1304C13.1089 14.9416 13.5113 14.7335 13.7568 14.5389C13.8774 14.4434 13.9417 14.3656 13.9733 14.3137C13.9883 14.289 13.9948 14.2724 13.9974 14.2635C13.9999 14.2553 14 14.2514 14 14.25V10.8973ZM14 5.64368C13.699 5.79766 13.3652 5.93401 13.0101 6.05237C11.6934 6.49127 9.92214 6.75 8 6.75C6.07786 6.75 4.30657 6.49127 2.98987 6.05237C2.63481 5.93401 2.30105 5.79766 2 5.64368V9C2 9.00142 2.00007 9.00531 2.00256 9.01355C2.00523 9.02236 2.01169 9.03902 2.02673 9.06372C2.05834 9.11559 2.12264 9.19343 2.24316 9.28894C2.48871 9.48352 2.89108 9.69163 3.45642 9.88037C4.57935 10.2552 6.18264 10.5 8 10.5C9.81736 10.5 11.4207 10.2552 12.5436 9.88037C13.1089 9.69163 13.5113 9.48352 13.7568 9.28894C13.8774 9.19343 13.9417 9.11559 13.9733 9.06372C13.9883 9.03902 13.9948 9.02236 13.9974 9.01355C13.9999 9.00531 14 9.00142 14 9V5.64368ZM13.9978 3.73865C13.9953 3.73029 13.9888 3.71358 13.9736 3.68884C13.9418 3.63699 13.8769 3.55904 13.7554 3.46326C13.5077 3.2681 13.103 3.05938 12.5359 2.87036C11.4096 2.49492 9.80578 2.25 8 2.25C6.19422 2.25 4.59043 2.49492 3.46411 2.87036C2.89705 3.05938 2.49226 3.2681 2.24463 3.46326C2.1231 3.55904 2.05822 3.63699 2.02637 3.68884C2.01118 3.71358 2.00474 3.73029 2.0022 3.73865C1.99987 3.74631 2 3.74946 2 3.75C2 3.75054 1.99987 3.75369 2.0022 3.76135C2.00474 3.76971 2.01118 3.78642 2.02637 3.81116C2.05822 3.86301 2.1231 3.94096 2.24463 4.03674C2.49226 4.2319 2.89705 4.44062 3.46411 4.62964C4.59043 5.00508 6.19422 5.25 8 5.25C9.80578 5.25 11.4096 5.00508 12.5359 4.62964C13.103 4.44062 13.5077 4.2319 13.7554 4.03674C13.8769 3.94096 13.9418 3.86301 13.9736 3.81116C13.9888 3.78642 13.9953 3.76971 13.9978 3.76135C14.0001 3.75369 14 3.75054 14 3.75C14 3.74946 14.0001 3.74631 13.9978 3.73865ZM15.5 14.25C15.5 14.887 15.1151 15.3764 14.6885 15.7145C14.2544 16.0585 13.6722 16.335 13.0189 16.5531C11.7044 16.992 9.93257 17.25 8 17.25C6.06743 17.25 4.29565 16.992 2.98108 16.5531C2.32776 16.335 1.74561 16.0585 1.31152 15.7145C0.884906 15.3764 0.5 14.887 0.5 14.25V3.75C0.5 3.11104 0.889236 2.62171 1.31628 2.28516C1.75178 1.94196 2.33547 1.66577 2.98987 1.44763C4.30657 1.00873 6.07786 0.75 8 0.75C9.92214 0.75 11.6934 1.00873 13.0101 1.44763C13.6645 1.66577 14.2482 1.94196 14.6837 2.28516C15.1108 2.62171 15.5 3.11104 15.5 3.75V14.25Z" fill="#979797"/>
</svg>
