<svg width="18" height="20" viewBox="0 0 18 20" fill="none" xmlns="http://www.w3.org/2000/svg">
<path d="M9 0.835083C9.43884 0.835083 9.86996 0.950551 10.25 1.16996L10.2496 1.17037L16.0801 4.50167L16.0833 4.5033L16.2225 4.58997C16.4712 4.75621 16.6868 4.96641 16.8613 5.20886C16.9125 5.25965 16.9586 5.31724 16.9964 5.38261C17.0282 5.43751 17.052 5.49499 17.0701 5.5531C17.2422 5.8982 17.3329 6.27896 17.3333 6.66597V13.3343C17.3329 13.7726 17.217 14.2031 16.9976 14.5826C16.7783 14.9622 16.463 15.2773 16.0833 15.4965L16.0801 15.4986L10.2467 18.8319L10.2463 18.8315C9.98326 18.9828 9.69584 19.0833 9.39836 19.1314C9.27994 19.196 9.14443 19.2335 9 19.2335C8.85546 19.2335 8.71974 19.1961 8.60124 19.1314C8.30379 19.0833 8.01631 18.9829 7.75326 18.8315V18.8319L1.91993 15.4986L1.91667 15.4965C1.53704 15.2773 1.22175 14.9622 1.00237 14.5826C0.810422 14.2506 0.697829 13.8795 0.672368 13.4983L0.666672 13.3343V6.66597L0.672368 6.50199C0.694401 6.17175 0.78221 5.84936 0.929937 5.5531C0.948044 5.49499 0.971825 5.43751 1.00359 5.38261C1.04141 5.31724 1.08753 5.25965 1.13868 5.20886C1.34499 4.9222 1.60917 4.68083 1.91667 4.5033L1.91993 4.50167L7.75 1.17037V1.16996C8.13005 0.950551 8.56117 0.835083 9 0.835083ZM2.33334 13.3326L2.33537 13.3872C2.34386 13.5143 2.38125 13.6382 2.44524 13.7489C2.51836 13.8753 2.62352 13.9802 2.75001 14.0533H2.7496L8.16667 17.1486V10.4888L2.33334 7.11479V13.3326ZM9.83334 10.4888V17.1486L15.25 14.0533L15.2964 14.0244C15.4022 13.9536 15.4908 13.8595 15.5548 13.7489C15.6278 13.6227 15.6664 13.4793 15.6667 13.3335V7.11479L9.83334 10.4888ZM9 2.50175C8.85375 2.50175 8.71 2.54013 8.58334 2.61324L8.58008 2.61528L3.19882 5.68982L9 9.04594L14.8008 5.68982L9.41993 2.61528L9.41667 2.61324C9.29001 2.54013 9.14626 2.50175 9 2.50175Z" fill="#979797"/>
</svg>
