<svg width="15" height="18" viewBox="0 0 15 18" fill="none" xmlns="http://www.w3.org/2000/svg">
<path d="M3 5.25H12V15C12 15.1989 11.9209 15.3896 11.7803 15.5303C11.6396 15.6709 11.4489 15.75 11.25 15.75H3.75C3.55109 15.75 3.36038 15.6709 3.21973 15.5303C3.07907 15.3896 3 15.1989 3 15V5.25ZM5.25 3C5.25 2.80109 5.32907 2.61038 5.46973 2.46973C5.61038 2.32907 5.80109 2.25 6 2.25H9C9.19891 2.25 9.38962 2.32907 9.53027 2.46973C9.67093 2.61038 9.75 2.80109 9.75 3V3.75H5.25V3ZM3.75 3.75H0.75C0.335786 3.75 0 4.08579 0 4.5C0 4.91421 0.335786 5.25 0.75 5.25H1.5V15C1.5 15.5967 1.73722 16.1689 2.15918 16.5908C2.58114 17.0128 3.15326 17.25 3.75 17.25H11.25C11.8467 17.25 12.4189 17.0128 12.8408 16.5908C13.2628 16.1689 13.5 15.5967 13.5 15V5.25H14.25C14.6642 5.25 15 4.91421 15 4.5C15 4.08579 14.6642 3.75 14.25 3.75H11.25V3C11.25 2.40326 11.0128 1.83114 10.5908 1.40918C10.1689 0.987223 9.59674 0.75 9 0.75H6C5.40326 0.75 4.83114 0.987223 4.40918 1.40918C3.98722 1.83114 3.75 2.40326 3.75 3V3.75Z" fill="white"/>
</svg>
